<?xml version="1.0" encoding="UTF-8"?>
<svg id="Layer_2" data-name="Layer 2" xmlns="http://www.w3.org/2000/svg" viewBox="0 0 129.43 124.71">
  <defs>
    <style>
      .cls-1 {
        fill: #93192d;
      }
    </style>
  </defs>
  <g id="Layer_1-2" data-name="Layer 1">
    <path class="cls-1" d="M113.04,35.12h-25.04l-7.74-23.82c-4.89-15.06-26.21-15.06-31.1,0l-7.74,23.82h-25.04c-15.84,0-22.42,20.27-9.61,29.58l20.26,14.72-7.74,23.82c-4.89,15.06,12.35,27.59,25.16,18.28l20.26-14.72,20.26,14.72c12.81,9.31,30.05-3.22,25.16-18.28l-7.74-23.82,20.26-14.72c12.81-9.31,6.23-29.58-9.61-29.58ZM42.95,99.96c-2.11,2.53-5.11,3.66-9,3.4-.84-.07-1.62-.48-2.33-1.23-.69-.75-1.03-1.57-1.03-2.43v-.67c.02-.84.21-1.62.57-2.33.35-.69.77-1.09,1.23-1.2.64-.13,1.14-.33,1.5-.6,1.02-.71,1.59-2.22,1.7-4.53.04-.78.06-1.83.03-3.17-.07-1.75-.1-2.84-.1-3.26v-9.1c.07-.84.46-1.58,1.17-2.2.71-.64,1.5-.98,2.37-1,1.27-.04,2.38-.05,3.33-.03.84.02,1.6.39,2.27,1.1.67.69,1.02,1.46,1.07,2.3.02.67.03,4.73.03,12.19,0,6.22-.93,10.47-2.8,12.76ZM49.02,51.21c-.42.67-.87,1-1.33,1s-.9.36-1.3,1.07c-.42.69-.64,1.47-.67,2.33-.04.98-.03,2.65.03,5.03.07,2.22.07,3.89,0,5-.04.84-.43,1.59-1.17,2.23-.71.62-1.5.94-2.37.97-1.04.02-2.1.02-3.17,0-.87-.02-1.66-.34-2.37-.97-.71-.67-1.1-1.41-1.17-2.23-.07-1.18-.08-2.81-.03-4.9.07-2.55.09-4.22.07-5,0-.87-.19-1.67-.57-2.4-.38-.73-.8-1.11-1.27-1.13-.51,0-.99-.34-1.43-1.03-.44-.69-.68-1.44-.7-2.27,0-.8.41-1.5,1.23-2.1.78-.58,1.62-.88,2.53-.9,4.66-.13,8.28-.13,10.86,0,.89.04,1.68.38,2.37,1,.71.62,1.07,1.33,1.07,2.13s-.21,1.52-.63,2.17ZM67.54,89.86c-.04.96-.23,1.8-.57,2.53-.36.78-.78,1.17-1.27,1.17-.49-.02-.99-.4-1.5-1.13-.49-.71-.84-1.53-1.07-2.47-.91-3.73-3.31-14.33-7.2-31.79-.64-2.91-1.07-4.51-1.27-4.8-.18-.24-.58-.49-1.2-.73-.36-.13-.68-.57-.97-1.3-.29-.73-.44-1.5-.47-2.3,0-.78.39-1.49,1.17-2.13.75-.64,1.6-.99,2.53-1.03,1.91-.09,4.44-.08,7.6.03.93.02,1.8.32,2.6.9.8.6,1.24,1.3,1.33,2.1.11,1.27.01,2.22-.3,2.87-.2.4-.53.67-1,.8-.36.09-.6.54-.73,1.37-.11.82-.08,1.69.1,2.6.09.36.55,2.08,1.4,5.16.58,2.13.92,3.94,1.03,5.43.2,2.69.12,10.26-.23,22.72ZM81.77,56.67c1.2,5.04,1.81,7.73,1.83,8.06v22.22c0,.18.01.82.03,1.93.02.87.02,1.56,0,2.07-.07,1.55-.34,2.41-.83,2.57-.78.24-1.39-.12-1.83-1.1-.13-.33-.38-1.24-.73-2.73-.11-.53-.53-2.58-1.27-6.13-.51-2.38-.97-4.29-1.37-5.73-.25-.89-.63-1.48-1.17-1.77-.51-.29-.85-.12-1.03.5-.07.29-.14.67-.23,1.13-.11.6-.18.97-.2,1.1-.09.38-.44,2.19-1.07,5.43-.42,2.27-.81,4.09-1.17,5.46-.24.89-.59,1.34-1.03,1.37-.44,0-.67-.46-.67-1.37,0-.4.01-1.01.03-1.83.04-.84.07-1.47.07-1.87,0-15.26.32-24.48.97-27.65.62-3.09.89-4.74.8-4.96-.11-.24-.42-.5-.93-.77-.31-.13-.59-.59-.83-1.37-.24-.75-.38-1.58-.4-2.46,0-.82.47-1.52,1.4-2.1.87-.51,1.8-.78,2.8-.8,2.62-.02,4.24-.03,4.86-.03.95.02,1.83.34,2.63.97.82.64,1.23,1.39,1.23,2.23-.02.84-.18,1.63-.47,2.37-.29.71-.61,1.12-.97,1.23-.36.09-.58.56-.67,1.4-.09.84-.02,1.72.2,2.63ZM100.06,51.38c-.27.75-.57,1.18-.9,1.27-.62.18-1.01.38-1.17.6l-1.13,5.26c-.73,3.53-1.83,8.65-3.3,15.36-1.53,6.98-2.67,12.19-3.4,15.66-.29,1.33-.49,2.15-.6,2.46-.42,1.18-.97,1.69-1.63,1.53-.56-.13-.86-1.01-.9-2.63-.02-.51-.01-1.19.03-2.03.04-.95.07-1.53.07-1.73v-21.12c.11-1.29.41-2.88.9-4.76.62-2.47.99-4.03,1.1-4.7.18-.91.2-1.78.07-2.6-.13-.84-.38-1.3-.73-1.37-.36-.07-.67-.48-.93-1.23-.29-.75-.44-1.58-.47-2.47-.02-.84.43-1.57,1.37-2.17.87-.51,1.81-.78,2.83-.8,3.18-.07,5.06-.09,5.66-.07.91.02,1.72.37,2.43,1.03.71.67,1.07,1.4,1.07,2.2s-.12,1.59-.37,2.3Z"/>
  </g>
</svg>